<?xml version="1.0" standalone="no"?>
<!DOCTYPE svg PUBLIC "-//W3C//DTD SVG 20010904//EN"
 "http://www.w3.org/TR/2001/REC-SVG-20010904/DTD/svg10.dtd">
<svg version="1.0" xmlns="http://www.w3.org/2000/svg"
 width="512.000000pt" height="483.000000pt" viewBox="0 0 512.000000 483.000000"
 preserveAspectRatio="xMidYMid meet">

<g transform="translate(0.000000,483.000000) scale(0.100000,-0.100000)"
fill="#000000" stroke="none">
<path d="M1525 4714 c-239 -22 -362 -51 -421 -99 -118 -97 -262 -311 -414
-615 -46 -91 -98 -187 -115 -215 -35 -54 -34 -53 -147 -178 -128 -140 -196
-232 -251 -342 -43 -87 -53 -119 -68 -224 -37 -263 43 -488 270 -758 94 -112
161 -210 208 -305 24 -47 43 -91 43 -97 0 -11 60 -127 110 -211 48 -82 129
-179 250 -298 106 -106 160 -173 342 -432 115 -163 203 -266 289 -341 69 -60
272 -206 354 -254 197 -115 438 -196 700 -236 250 -39 808 -50 1165 -24 299
21 439 51 589 122 77 37 108 59 171 121 65 66 84 94 132 192 31 63 69 153 85
200 25 77 28 97 26 210 -1 69 -6 161 -12 205 -5 44 -15 288 -22 541 -10 362
-10 489 0 585 13 144 21 169 103 338 33 69 69 150 79 179 60 172 45 494 -30
640 -29 57 -81 123 -165 207 -56 56 -80 89 -95 131 -12 30 -21 63 -21 72 0 48
-43 203 -71 260 -63 123 -257 286 -478 401 -124 65 -614 160 -976 190 -71 6
-184 16 -250 22 -112 10 -1290 21 -1380 13z m1349 -124 c441 -27 698 -50 741
-66 35 -14 4 -30 -81 -43 -101 -17 -246 -7 -459 29 -200 33 -507 61 -736 67
l-215 6 -121 -32 c-169 -44 -214 -61 -332 -125 -115 -63 -166 -101 -316 -231
-55 -47 -119 -101 -142 -118 -38 -29 -42 -36 -43 -74 0 -31 4 -43 15 -43 8 0
54 30 102 67 257 197 353 261 508 341 160 82 276 115 445 127 129 8 539 -18
735 -48 168 -26 410 -47 532 -47 89 0 162 15 229 46 97 45 179 28 369 -77 164
-91 298 -183 345 -236 54 -61 85 -130 105 -235 32 -171 37 -194 56 -237 10
-24 58 -84 106 -136 151 -158 194 -253 201 -437 6 -182 -22 -284 -163 -586
l-67 -144 12 -396 c6 -219 12 -572 13 -787 2 -445 3 -441 -83 -619 -125 -261
-162 -277 -745 -332 -369 -34 -831 -39 -1035 -10 -256 36 -446 87 -745 200
-241 92 -439 272 -705 641 -117 162 -187 249 -314 393 -242 272 -282 327 -346
473 -89 202 -187 356 -310 486 -76 80 -122 165 -163 303 -72 244 -69 307 22
491 80 158 171 269 222 269 35 0 37 -12 6 -33 -41 -27 -116 -110 -143 -160
-36 -68 -44 -174 -32 -442 9 -209 11 -222 34 -252 43 -57 98 -102 168 -138 76
-39 120 -45 135 -16 9 16 5 20 -32 30 -94 28 -208 126 -226 197 -6 22 -12 153
-13 290 -3 243 -2 250 21 301 26 58 97 130 157 161 21 11 77 32 123 47 79 26
90 28 202 22 114 -7 119 -6 119 13 0 37 -33 42 -214 37 -94 -3 -183 -8 -199
-12 -23 -6 -27 -5 -24 11 2 11 19 46 37 79 19 33 83 159 141 280 163 336 217
425 323 531 83 83 151 129 221 149 192 55 886 66 1559 25z"/>
<path d="M2260 4409 c-184 -22 -467 -91 -537 -131 -158 -91 -433 -357 -433
-419 0 -50 77 -3 240 146 176 161 216 189 338 231 207 71 436 106 567 85 417
-65 362 -61 775 -62 336 0 404 2 535 20 185 26 213 26 245 1 30 -23 60 -26 60
-6 0 26 -42 87 -67 97 -31 11 -117 11 -208 -1 -184 -25 -406 -41 -475 -36 -41
4 -172 11 -290 16 -119 5 -254 17 -300 25 -204 36 -342 47 -450 34z"/>
<path d="M2103 4215 c-247 -39 -352 -90 -511 -248 -78 -77 -136 -157 -197
-274 -44 -85 -102 -143 -143 -143 -57 0 -68 -40 -19 -70 42 -26 61 -26 54 0
-3 10 1 24 8 30 18 15 32 -6 45 -65 14 -63 48 -113 119 -174 121 -104 252
-175 390 -214 102 -28 412 -31 538 -5 191 40 310 96 410 194 148 144 174 289
87 472 -31 65 -45 80 -124 143 -59 47 -90 78 -95 97 -17 71 -103 182 -141 182
-32 0 -30 -10 9 -48 37 -36 73 -99 63 -109 -4 -4 -37 1 -74 11 -159 43 -234
57 -347 63 -145 7 -214 -3 -373 -57 -64 -22 -121 -40 -126 -40 -17 0 29 42 94
85 132 88 396 138 697 132 84 -1 126 2 134 10 14 14 8 15 -116 32 -102 14
-276 12 -382 -4z m231 -237 c58 -9 184 -52 198 -66 9 -10 -16 -79 -38 -103
-10 -12 -34 -27 -52 -35 -40 -16 -34 -34 13 -34 24 0 35 -5 40 -19 7 -24 44
-35 52 -15 3 8 -2 23 -11 33 -16 18 -16 22 14 80 18 34 36 64 41 67 16 9 75
-34 133 -97 31 -33 56 -64 56 -69 0 -5 -15 -13 -34 -20 -19 -6 -51 -32 -76
-61 -42 -50 -43 -51 -86 -44 -34 5 -44 3 -44 -8 0 -7 11 -19 25 -25 29 -13 30
-20 10 -46 -19 -25 -19 -36 0 -36 16 0 96 82 132 136 27 38 63 45 101 18 19
-13 22 -24 22 -90 0 -113 0 -113 -119 -107 -88 5 -107 3 -161 -17 -80 -30 -89
-45 -21 -36 51 7 52 7 45 -19 -4 -18 -2 -25 8 -25 15 0 48 34 48 50 0 13 91
13 124 0 14 -5 26 -14 26 -20 0 -18 -80 -98 -130 -130 l-49 -32 -67 27 c-53
21 -76 25 -108 20 -23 -4 -80 -8 -128 -9 -89 -2 -123 -15 -101 -37 11 -11 178
-7 226 6 28 7 107 -19 107 -35 0 -10 -142 -48 -227 -60 -80 -11 -214 -12 -283
-2 -48 7 -63 29 -40 57 17 21 44 19 92 -6 36 -18 42 -19 55 -6 13 13 12 17 -8
35 -28 27 -112 55 -138 47 -11 -3 -34 -28 -52 -56 -37 -58 -29 -58 -175 -3
-51 19 -97 34 -103 34 -21 0 -11 20 19 35 20 10 30 23 30 38 0 47 14 51 66 18
36 -22 52 -27 61 -19 20 17 16 25 -31 58 -67 45 -88 41 -125 -25 -37 -65 -63
-71 -120 -28 -87 65 -114 123 -115 243 -1 74 3 93 27 143 16 31 32 57 37 57
20 0 35 -49 40 -125 5 -74 7 -80 28 -83 16 -3 22 2 22 15 0 11 -5 24 -11 30
-40 40 62 61 111 23 32 -25 40 -25 40 0 0 26 -39 51 -98 61 -52 10 -86 42 -96
92 -7 36 0 46 68 91 80 53 99 55 126 12 12 -20 35 -43 50 -51 49 -26 84 -15
40 13 -19 11 -60 81 -60 101 0 17 206 71 269 71 41 0 75 -40 66 -79 -5 -23 -1
-35 14 -50 22 -22 75 -28 100 -12 20 13 4 31 -28 31 -37 0 -54 21 -45 54 4 19
1 33 -12 47 l-19 21 85 -7 c47 -4 112 -11 144 -17z"/>
<path d="M2055 3741 c-56 -16 -83 -30 -119 -62 -44 -38 -61 -69 -71 -126 -16
-99 91 -187 244 -200 116 -10 212 32 259 112 49 85 8 203 -89 253 -51 26 -170
38 -224 23z"/>
<path d="M3515 4158 c-108 -8 -173 -22 -226 -48 -42 -22 -46 -29 -27 -48 16
-16 44 -15 71 3 32 20 160 37 302 39 139 1 212 -18 313 -83 50 -33 102 -91
102 -115 0 -3 -46 -6 -102 -6 -254 -1 -477 -70 -559 -174 -21 -26 -23 -27 -35
-11 -7 10 -16 37 -20 61 -6 40 -2 51 36 114 38 64 46 100 21 100 -16 0 -63
-63 -88 -117 l-24 -52 17 -79 17 -78 -42 -86 c-23 -48 -47 -91 -54 -97 -7 -5
-40 -11 -72 -13 -52 -3 -60 -6 -63 -24 -4 -27 40 -79 87 -103 20 -11 47 -31
61 -46 23 -25 25 -35 28 -143 1 -64 5 -127 7 -139 3 -12 33 -41 69 -67 159
-113 163 -172 24 -337 -55 -65 -92 -82 -161 -71 -67 11 -97 1 -97 -32 0 -32
59 -83 105 -92 120 -22 236 52 300 191 18 39 42 79 54 89 21 19 21 19 21 0 0
-26 11 -40 36 -48 29 -9 54 17 54 55 0 39 16 37 97 -13 85 -52 186 -98 214
-98 22 0 22 0 3 21 -41 46 -241 149 -289 149 -8 0 -22 17 -32 38 -20 43 -99
121 -198 197 -38 29 -80 63 -92 76 -25 28 -39 74 -25 83 5 3 65 -22 133 -55
173 -85 207 -92 429 -93 197 0 262 9 367 51 81 32 148 42 219 32 34 -5 65 -4
76 2 29 15 23 61 -12 92 -26 24 -28 29 -19 57 9 25 16 30 42 30 18 0 37 -4 44
-8 20 -13 67 -174 67 -233 1 -72 -59 -201 -103 -224 -51 -26 -47 -64 5 -51 42
11 100 72 130 138 23 51 28 76 28 130 -2 96 -35 191 -94 269 -71 93 -64 122
18 80 79 -40 170 -207 171 -313 1 -63 -52 -261 -81 -304 -28 -42 -78 -78 -172
-124 -77 -38 -99 -70 -49 -70 49 0 135 50 204 119 53 53 71 80 93 137 44 117
59 262 35 349 -15 53 -78 143 -163 235 -39 42 -93 113 -119 158 -68 118 -172
224 -261 267 -39 19 -98 41 -130 49 -32 9 -60 17 -61 18 -1 2 -22 33 -48 69
-51 74 -145 143 -233 174 -59 21 -226 32 -349 23z m447 -334 c5 -3 8 -26 8
-52 0 -58 6 -67 53 -87 52 -22 53 -20 13 25 -27 30 -36 49 -36 74 0 19 5 38
10 41 13 8 139 -11 205 -32 142 -44 181 -79 105 -94 -19 -4 -40 -15 -47 -24
-12 -18 -8 -72 8 -89 12 -14 22 20 16 53 -6 26 -3 29 30 34 19 4 44 14 54 23
17 16 20 15 52 -9 66 -50 116 -145 117 -224 l0 -43 -40 0 c-21 0 -55 -8 -75
-17 -31 -15 -35 -21 -30 -44 8 -35 -9 -45 -29 -17 -20 28 -33 16 -20 -20 18
-51 68 -37 80 23 4 22 13 35 26 39 27 6 78 -4 78 -16 0 -21 -74 -120 -122
-163 -48 -43 -176 -115 -205 -115 -7 0 -16 8 -20 18 -3 9 -17 27 -30 38 -21
18 -23 25 -14 43 18 33 2 45 -21 16 -16 -21 -28 -25 -74 -25 -30 0 -54 -4 -54
-10 0 -5 15 -10 33 -10 60 0 106 -19 122 -50 10 -19 11 -31 4 -35 -19 -13
-278 -30 -289 -19 -6 6 -1 28 15 62 24 53 20 71 -8 30 l-14 -23 -72 34 c-39
19 -74 32 -77 28 -4 -3 24 -25 60 -48 45 -28 65 -47 62 -56 -4 -8 -6 -18 -6
-22 0 -12 -123 7 -191 29 -68 23 -141 59 -122 60 7 0 28 14 47 30 18 17 50 37
70 45 37 15 45 28 25 40 -6 4 -19 -2 -30 -14 -11 -12 -25 -21 -32 -21 -7 0
-28 -11 -47 -25 -51 -38 -88 -33 -137 18 -68 71 -103 165 -103 281 0 102 54
116 108 27 34 -54 85 -96 107 -87 25 9 17 25 -24 45 -24 13 -49 37 -65 66 -15
25 -36 51 -47 58 -28 17 -23 28 29 68 62 48 137 86 212 109 57 17 62 17 66 2
17 -56 41 -106 56 -116 28 -17 31 -1 9 43 -23 45 -27 86 -9 97 30 19 184 24
210 8z"/>
<path d="M3902 3606 c-87 -29 -152 -97 -152 -160 0 -46 37 -103 82 -129 117
-67 263 -53 343 32 41 44 43 118 3 178 -49 74 -178 111 -276 79z"/>
<path d="M905 3395 c-156 -25 -213 -60 -294 -181 -64 -95 -92 -182 -99 -302
-7 -148 27 -274 90 -327 66 -55 78 -22 48 135 -44 230 -14 370 104 478 73 66
131 92 205 92 75 0 117 -15 228 -82 107 -65 196 -96 218 -78 8 7 15 28 15 47
0 48 -39 82 -140 123 -45 18 -94 46 -110 62 -50 50 -112 58 -265 33z"/>
<path d="M980 3166 c-6 -8 -17 -55 -24 -105 -8 -58 -18 -97 -30 -110 -10 -10
-50 -31 -89 -46 -117 -43 -163 -91 -121 -125 17 -15 97 -17 160 -6 l41 8 21
-58 c34 -91 59 -212 87 -414 57 -413 86 -549 150 -700 143 -339 538 -751 935
-976 201 -113 336 -164 535 -202 209 -39 324 -46 593 -33 587 28 929 69 1034
122 130 66 241 261 267 468 51 408 -13 1474 -105 1733 -8 24 -27 60 -41 81
-16 23 -29 60 -34 94 -7 53 -32 102 -56 110 -22 8 -42 -28 -47 -84 -20 -193
-52 -268 -156 -367 -116 -109 -294 -182 -529 -216 -107 -16 -498 -7 -641 14
-210 32 -380 73 -510 123 -95 36 -102 38 -255 84 -303 89 -655 244 -930 409
-109 66 -165 115 -165 146 0 48 -62 83 -90 50z m129 -270 c65 -33 236 -132
299 -173 64 -43 82 -67 82 -111 0 -19 8 -72 17 -118 28 -137 11 -136 -229 21
-141 93 -205 152 -235 217 -38 83 -37 188 3 188 9 0 37 -11 63 -24z m676 -331
c66 -24 167 -60 225 -80 116 -42 196 -77 222 -97 15 -13 15 -21 2 -97 -8 -46
-22 -96 -31 -111 -15 -27 -16 -27 -72 -15 -137 30 -343 129 -417 200 -75 74
-140 215 -111 244 13 13 35 8 182 -44z m2496 -161 c40 -139 46 -195 22 -217
-28 -24 -76 -32 -91 -14 -7 8 -20 54 -28 103 -8 48 -20 96 -25 105 -21 41 -11
68 38 99 26 16 49 27 52 25 3 -3 17 -49 32 -101z m-202 -51 c15 -33 34 -199
25 -225 -6 -21 -63 -52 -112 -61 -46 -9 -66 16 -86 101 -27 121 -25 127 75
182 67 37 82 37 98 3z m-1449 -54 c80 -17 157 -33 172 -36 49 -10 57 -29 59
-145 1 -58 -2 -111 -5 -117 -14 -22 -101 -13 -356 35 -168 32 -200 45 -200 77
0 28 15 112 31 169 17 66 50 68 299 17z m1180 -59 c15 -27 18 -186 5 -199 -19
-19 -169 -52 -265 -58 -89 -5 -96 -4 -115 16 -23 26 -33 130 -16 173 11 29 11
30 166 47 50 5 108 16 130 24 58 21 83 20 95 -3z m-513 -36 c15 -4 24 -19 32
-49 15 -59 14 -150 -1 -163 -15 -11 -103 -17 -230 -14 -121 3 -128 10 -128
135 0 52 3 97 8 102 8 8 283 -1 319 -11z m-1873 -634 c42 -28 103 -76 136
-108 49 -48 59 -64 65 -102 7 -53 -11 -118 -38 -134 -16 -9 -25 -4 -59 34 -75
84 -218 313 -218 350 0 22 41 8 114 -40z m677 -360 c80 -22 105 -39 125 -87
18 -42 18 -75 -1 -148 -19 -71 -84 -205 -103 -213 -54 -20 -442 292 -442 357
0 10 6 34 14 52 7 19 16 69 20 112 3 43 8 83 11 88 3 5 73 -25 155 -66 82 -41
181 -84 221 -95z m445 -165 c328 -121 309 -103 306 -290 -2 -173 -5 -182 -52
-196 -77 -23 -398 54 -504 122 -52 33 -55 44 -27 121 18 49 29 84 75 251 9 31
18 57 20 57 3 0 84 -29 182 -65z m1890 -100 c-3 -30 -15 -79 -27 -109 -55
-148 -98 -111 -57 50 10 43 61 114 80 114 7 0 9 -19 4 -55z m-1346 -51 c25 -8
94 -19 153 -26 85 -10 111 -16 118 -30 12 -22 -48 -303 -69 -325 -13 -12 -40
-14 -148 -11 -81 2 -137 7 -144 14 -6 6 -16 29 -21 50 -12 54 -11 311 1 335
12 21 18 20 110 -7z m1172 -86 c2 -51 7 -100 11 -109 6 -12 -2 -19 -35 -32
-61 -23 -158 -46 -158 -39 0 28 71 237 85 252 12 13 31 20 56 20 l38 0 3 -92z
m-237 25 c-4 -10 -18 -63 -32 -118 -29 -123 -47 -144 -124 -151 -85 -8 -86 -4
-43 127 20 63 43 120 50 128 13 15 67 28 123 30 28 1 32 -2 26 -16z m-332 1
c37 -7 37 -7 37 -53 0 -25 -7 -85 -14 -132 -8 -47 -14 -94 -13 -104 3 -29 -52
-44 -160 -44 -79 -1 -94 2 -102 17 -10 18 35 283 52 310 9 13 132 17 200 6z"/>
<path d="M2302 2948 c-7 -7 -12 -19 -12 -27 0 -9 -7 -24 -14 -34 -11 -14 -40
-19 -185 -27 -95 -5 -177 -12 -182 -16 -5 -3 -9 -14 -9 -26 0 -16 4 -18 18
-12 9 4 92 8 183 9 146 0 170 2 203 20 48 26 51 20 66 -109 16 -142 23 -160
69 -181 30 -13 43 -15 60 -6 32 18 38 58 12 89 -35 43 -61 104 -61 144 0 51
31 73 112 81 82 8 97 14 104 44 11 44 -15 58 -117 62 -101 3 -127 -7 -154 -60
-23 -44 -59 -37 -63 11 -4 42 -14 54 -30 38z"/>
<path d="M2643 2761 c-29 -13 -43 -42 -43 -90 0 -51 15 -91 35 -91 8 0 29 22
46 50 16 27 39 52 49 55 24 8 67 -14 104 -54 35 -36 81 -41 117 -12 l23 19
-19 41 c-29 65 -69 84 -189 88 -56 2 -111 -1 -123 -6z"/>
</g>
</svg>
